<?xml version="1.0" encoding="utf-8"?>
<!-- Generator: Adobe Illustrator 25.3.1, SVG Export Plug-In . SVG Version: 6.00 Build 0)  -->
<svg version="1.1" id="Layer_1" xmlns="http://www.w3.org/2000/svg" xmlns:xlink="http://www.w3.org/1999/xlink" x="0px" y="0px"
	 viewBox="0 0 406 306" style="enable-background:new 0 0 406 306;" xml:space="preserve">
<style type="text/css">
	.st0{opacity:0.51;fill:#7474AF;enable-background:new    ;}
	.st1{fill:#C9C9C9;}
	.st2{fill:#E6E6E6;}
	.st3{opacity:0.42;fill:#C9C9C9;enable-background:new    ;}
	.st4{opacity:0.58;fill:#7474AF;enable-background:new    ;}
	.st5{opacity:0.73;fill:#7474AF;enable-background:new    ;}
	.st6{fill:#7474AF;}
	.st7{fill:#24285B;}
	.st8{fill:#FFFFFF;}
	.st9{fill:#FFD200;}
	.st10{fill:#A5A5A5;}
	.st11{opacity:0.1;enable-background:new    ;}
	.st12{opacity:0.44;fill:#FFFFFF;enable-background:new    ;}
	.st13{opacity:0.2;enable-background:new    ;}
</style>
<path class="st0" d="M214.9,303.2c-9.7-2.9-18.8-7.3-28.8-9.7c-16.2-3.8-34-2-50.8-3.9c-7.3-0.8-14.3-2.4-21-4.8
	c-6.6-2.3-13-5.4-18.8-9c-7.8-4.9-15-10.6-21.5-17.2c-6.2-6.3-11.9-13.2-17-20.5c-7.7-11.1-14.4-22.8-20.2-35.1
	c-18.3-38,20.1-122,60.1-143.2c17.6-9.3,37.3-10.1,55.9-15.9c34.5-10.8,66.1-39,101-40.8c22.6-1.2,42.9,9.4,57.8,24.5
	c14.9,15.2,24.9,34.7,34.1,54.4c4.4,9.5,8.8,19.3,9.6,30.2c1.4,19.3-8.1,38.9-13.4,58.5c-8.8,32-7,66.6-25.3,95.2
	C294.6,299.8,249.2,313.3,214.9,303.2z"/>
<polygon class="st1" points="186.1,161 178.9,206.9 227.1,206.9 216,161 "/>
<rect x="167.9" y="198.9" class="st2" width="67.9" height="14.8"/>
<polygon class="st2" points="265.5,226 205.5,226 199.2,226 139.1,226 124.4,264.7 199.2,264.7 205.5,264.7 280.2,264.7 "/>
<polygon class="st1" points="229.3,232.4 197.5,232.4 192.7,232.4 144.3,232.4 136,258.2 192.7,258.2 197.5,258.2 238.6,258.2 "/>
<polygon class="st3" points="235.7,232.4 245.8,258.2 270.6,258.2 260,232.4 "/>
<polygon class="st1" points="124.4,264.7 129.8,271.9 273.9,271.9 280.2,264.7 "/>
<path class="st4" d="M90.2,216.1c0,0-14.4-3.9-17.5-17.3c0,0,22.2-4.5,22.9,18.5L90.2,216.1z"/>
<path class="st5" d="M92,214.7c0,0-10-15.9-1.2-30.7c0,0,16.9,10.7,9.4,30.7L92,214.7z"/>
<path class="st6" d="M94.6,214.7c0,0,5.3-16.8,21.3-19.9c0,0,3,10.9-10.4,20L94.6,214.7z"/>
<polygon class="st7" points="84.2,214.3 87.1,234.2 105.4,234.3 108.1,214.4 "/>
<rect x="89.7" y="34.1" class="st2" width="220.7" height="143.4"/>
<rect x="97.6" y="41.6" class="st6" width="203.9" height="114.8"/>
<rect x="97.6" y="41.6" class="st7" width="203.9" height="15.1"/>
<circle class="st8" cx="106.3" cy="48.5" r="3.3"/>
<circle class="st6" cx="116.2" cy="48.5" r="3.3"/>
<circle class="st9" cx="125.5" cy="48.5" r="3.3"/>
<circle class="st10" cx="202.6" cy="166.3" r="4.2"/>
<rect x="97.6" y="56.7" class="st9" width="34.9" height="99.7"/>
<rect x="266.6" y="56.7" class="st9" width="34.9" height="99.7"/>
<polygon class="st11" points="197.6,107.2 236.4,84.6 236.3,124.6 197.5,147.2 "/>
<polygon class="st12" points="162.7,87 201.6,64.5 236.4,84.6 197.6,107.2 "/>
<polygon class="st13" points="197.6,107.2 197.5,147.2 162.6,127.1 162.7,87 "/>
<rect x="106.1" y="67.7" class="st12" width="17.7" height="15.9"/>
<polygon class="st12" points="123.9,148.2 107.9,148.2 107.9,132.2 "/>
<polygon class="st12" points="119.4,99 109.2,99 104.1,107.9 109.2,116.8 119.4,116.8 124.6,107.9 "/>
<rect x="273.8" y="75.7" class="st12" width="20.5" height="3.6"/>
<rect x="273.8" y="84.4" class="st11" width="6.5" height="1.8"/>
<rect x="283.3" y="84.4" class="st11" width="11" height="1.8"/>
<rect x="273.8" y="91.2" class="st11" width="12" height="1.8"/>
<rect x="289.9" y="91.2" class="st11" width="4.4" height="1.8"/>
<rect x="273.8" y="98.1" class="st11" width="3.5" height="1.8"/>
<rect x="279.3" y="98.1" class="st11" width="15" height="1.8"/>
<rect x="273.8" y="104.9" class="st11" width="17.1" height="1.8"/>
<rect x="273.8" y="117" class="st12" width="20.5" height="3.6"/>
<rect x="273.8" y="125.7" class="st11" width="6.5" height="1.8"/>
<rect x="283.3" y="125.7" class="st11" width="11" height="1.8"/>
<rect x="273.8" y="132.6" class="st11" width="12" height="1.8"/>
<rect x="289.9" y="132.6" class="st11" width="4.4" height="1.8"/>
<rect x="273.8" y="139.4" class="st11" width="3.5" height="1.8"/>
<rect x="279.3" y="139.4" class="st11" width="15" height="1.8"/>
<rect x="273.8" y="146.3" class="st11" width="17.1" height="1.8"/>
<polygon class="st12" points="140.8,71.3 145.5,67 144.9,66.2 140.1,70.7 140.1,62.7 139.1,62.7 139.1,72.3 149.2,72.3 149.2,71.3 
	"/>
</svg>
