<?xml version="1.0" encoding="utf-8"?>
<!-- Generator: Adobe Illustrator 25.3.1, SVG Export Plug-In . SVG Version: 6.00 Build 0)  -->
<svg version="1.1" id="Layer_1" xmlns="http://www.w3.org/2000/svg" xmlns:xlink="http://www.w3.org/1999/xlink" x="0px" y="0px"
	 viewBox="0 0 550 370" style="enable-background:new 0 0 550 370;" xml:space="preserve">
<style type="text/css">
	.st0{fill:url(#SVGID_1_);}
	.st1{fill:url(#SVGID_2_);}
	.st2{fill:url(#SVGID_3_);}
	.st3{fill:url(#SVGID_4_);}
	.st4{fill:url(#SVGID_5_);}
	.st5{fill:url(#SVGID_6_);}
	.st6{fill:none;}
</style>
<g>
	<g>
		<linearGradient id="SVGID_1_" gradientUnits="userSpaceOnUse" x1="47.3487" y1="174.7384" x2="59.8487" y2="366.7839">
			<stop  offset="0" style="stop-color:#4D4D4D"/>
			<stop  offset="1" style="stop-color:#1F1F1F"/>
		</linearGradient>
		<path class="st0" d="M50.41,177.7c7.81,1.5,13.53,3.64,17.16,6.42c3.63,2.78,5.44,6.73,5.44,11.86c0,5.62-2.16,10.24-6.47,13.83
			c-4.31,3.59-10.1,5.39-17.35,5.39c-3.5,0-6.8-0.45-9.89-1.36c-3.09-0.9-5.66-2.05-7.69-3.42c-2.03-1.38-3.52-2.47-4.45-3.28
			c-0.94-0.81-1.66-1.53-2.16-2.16l4.5-8.06c5.56,6.19,12.19,9.28,19.88,9.28c4.69,0,8.3-0.87,10.83-2.62
			c2.53-1.75,3.8-4.16,3.8-7.22c0-4.75-4.78-7.97-14.35-9.66c-8.31-1.44-14.14-3.61-17.49-6.52c-3.34-2.91-5.02-6.64-5.02-11.21
			c0-5.31,2-9.69,6-13.13c4-3.44,9.56-5.16,16.69-5.16c8.19,0,14.97,2.5,20.35,7.5l-4.31,8.16c-4.56-4.44-9.97-6.66-16.22-6.66
			c-4.31,0-7.64,0.78-9.99,2.34c-2.34,1.56-3.52,3.75-3.52,6.56c0,2.38,1.09,4.24,3.28,5.58C41.63,175.53,45.28,176.7,50.41,177.7z"
			/>
	</g>
	<g>
		<linearGradient id="SVGID_2_" gradientUnits="userSpaceOnUse" x1="100.7465" y1="171.2628" x2="113.2465" y2="363.3083">
			<stop  offset="0" style="stop-color:#4D4D4D"/>
			<stop  offset="1" style="stop-color:#1F1F1F"/>
		</linearGradient>
		<path class="st1" d="M119.51,160.45h-27v18h22.5v9h-22.5v18h27v9h-36v-63.01h36V160.45z"/>
	</g>
	<g>
		<linearGradient id="SVGID_3_" gradientUnits="userSpaceOnUse" x1="151.6593" y1="167.9489" x2="164.1593" y2="359.9944">
			<stop  offset="0" style="stop-color:#4D4D4D"/>
			<stop  offset="1" style="stop-color:#1F1F1F"/>
		</linearGradient>
		<path class="st2" d="M176.52,214.46h-10.5l-15.73-21.75h-9.77v21.75h-9v-63.01h19.5c7.94,0,13.92,1.81,17.96,5.44
			c4.03,3.63,6.05,8.53,6.05,14.72c0,4.94-1.3,9.24-3.89,12.89c-2.59,3.66-6.2,6.11-10.83,7.36L176.52,214.46z M140.51,160.45v23.25
			h13.41c3.56,0,6.47-0.95,8.72-2.86c2.25-1.91,3.38-4.8,3.38-8.67c0-3.94-1.11-6.88-3.33-8.81c-2.22-1.94-5.08-2.91-8.58-2.91
			H140.51z"/>
	</g>
	<g>
		<linearGradient id="SVGID_4_" gradientUnits="userSpaceOnUse" x1="207.7536" y1="164.2978" x2="220.2537" y2="356.3433">
			<stop  offset="0" style="stop-color:#4D4D4D"/>
			<stop  offset="1" style="stop-color:#1F1F1F"/>
		</linearGradient>
		<path class="st3" d="M231.27,214.46l-6.13-13.5h-28.26l-6.12,13.5h-9.75l30-64.51l30,64.51H231.27z M200.97,191.96h20.09
			l-10.05-22.15L200.97,191.96z"/>
	</g>
	<g>
		<linearGradient id="SVGID_5_" gradientUnits="userSpaceOnUse" x1="268.1771" y1="160.3649" x2="280.6771" y2="352.4104">
			<stop  offset="0" style="stop-color:#4D4D4D"/>
			<stop  offset="1" style="stop-color:#1F1F1F"/>
		</linearGradient>
		<path class="st4" d="M268.03,151.45c7.94,0,13.92,1.81,17.95,5.44c4.03,3.63,6.05,8.53,6.05,14.72c0,6.06-1.91,11.1-5.72,15.1
			c-3.81,4-8.97,6-15.47,6h-13.32v21.75h-9v-63.01H268.03z M270.93,183.7c3.56,0,6.47-0.95,8.72-2.86c2.25-1.91,3.37-4.8,3.37-8.67
			c0-3.88-1.22-6.8-3.66-8.77c-2.44-1.97-5.44-2.95-9-2.95h-12.85v23.25H270.93z"/>
	</g>
	<g>
		<linearGradient id="SVGID_6_" gradientUnits="userSpaceOnUse" x1="323.3261" y1="156.7753" x2="335.8261" y2="348.8209">
			<stop  offset="0" style="stop-color:#4D4D4D"/>
			<stop  offset="1" style="stop-color:#1F1F1F"/>
		</linearGradient>
		<path class="st5" d="M340.03,151.45h9v63.01h-9v-27h-30v27h-9v-63.01h9v27h30V151.45z"/>
	</g>
	<g>
		<g>
			<path class="st6" d="M402.78,182.96c0,2.91-0.46,5.61-1.36,8.08c-0.9,2.47-2.24,4.71-4.04,6.71c-3.6,4.01-8.06,5.95-13.66,5.95
				h-10.41v-41.49h10.41c5.58,0,10.04,1.94,13.66,5.95C401.01,172.2,402.78,177.05,402.78,182.96z"/>
		</g>
		<g>
			<path d="M406.32,159.14c-6-6.28-14.38-9.46-24.95-9.46h-20.61v66.55h20.61c10.39,0,18.74-3.19,24.81-9.51
				c6.05-6.26,9.12-14.26,9.12-23.75C415.31,173.41,412.29,165.39,406.32,159.14z M383.72,203.7h-10.41v-41.49h10.41
				c5.58,0,10.04,1.94,13.66,5.95c3.64,4.04,5.4,8.89,5.4,14.81c0,2.91-0.46,5.61-1.36,8.08c-0.9,2.47-2.24,4.71-4.04,6.71
				C393.78,201.76,389.31,203.7,383.72,203.7z"/>
		</g>
		<g>
			<polygon points="434.05,162.21 434.05,176.7 456.57,176.7 456.57,189.23 434.05,189.23 434.05,203.7 461.07,203.7 461.07,216.23 
				421.52,216.23 421.52,149.68 461.07,149.68 461.07,162.21 			"/>
		</g>
		<g>
			<polygon points="525,149.68 493.8,220.32 462.58,149.68 476.21,149.68 493.8,190.37 511.39,149.68 			"/>
		</g>
	</g>
</g>
</svg>
