<?xml version="1.0" encoding="utf-8"?>
<!-- Generator: Adobe Illustrator 25.3.1, SVG Export Plug-In . SVG Version: 6.00 Build 0)  -->
<svg version="1.1" id="Layer_1" xmlns="http://www.w3.org/2000/svg" xmlns:xlink="http://www.w3.org/1999/xlink" x="0px" y="0px"
	 viewBox="0 0 1440 320" style="enable-background:new 0 0 1440 320;" xml:space="preserve">
<style type="text/css">
	.st0{fill:url(#SVGID_1_);}
</style>
<linearGradient id="SVGID_1_" gradientUnits="userSpaceOnUse" x1="0" y1="589" x2="1440.0002" y2="589" gradientTransform="matrix(1 0 0 1 0 -446)">
	<stop  offset="2.237672e-07" style="stop-color:#B3B3D1"/>
	<stop  offset="0.33" style="stop-color:#D1D1D1"/>
	<stop  offset="0.67" style="stop-color:#D1D1D1"/>
	<stop  offset="1" style="stop-color:#B3B3D1"/>
</linearGradient>
<path class="st0" d="M0,95V63h36.9v64h36.9v32h37v128h36.9V159h36.9l0,0h36.9l0,0h37v-32h36.9v96h36.9V31h36.9v160h37V63h36.9V31
	H480v192h36.9v-32h36.9l0,0h37v64h36.9v-64h36.9v-64h36.9v128h37l0,0h36.9V31h36.9v32h36.9v96h37v-32h36.9V31H960v64h36.9v96h36.9
	v-64h37v32h36.9v128h36.9V95h36.9v32h37v128h36.9v-32h36.9V63h36.9v32h37V63h36.9v224h36.9V-1h-36.9l0,0h-36.9l0,0h-37l0,0h-36.9
	l0,0h-36.9l0,0h-36.9l0,0h-37l0,0h-36.9l0,0h-36.9l0,0h-36.9l0,0h-37l0,0h-36.9l0,0H960l0,0h-36.9l0,0h-36.9l0,0h-37l0,0h-36.9l0,0
	h-36.9l0,0h-36.9l0,0h-37l0,0h-36.9l0,0h-36.9l0,0h-36.9l0,0h-37l0,0h-36.9l0,0H480l0,0h-36.9l0,0h-36.9l0,0h-37l0,0h-36.9l0,0
	h-36.9l0,0h-36.9l0,0h-37l0,0h-36.9l0,0h-36.9l0,0h-36.9l0,0h-37l0,0H36.9l0,0H0l0,0V95z"/>
</svg>
